<svg id="Layer_1" data-name="Layer 1" xmlns="http://www.w3.org/2000/svg" xmlns:xlink="http://www.w3.org/1999/xlink" viewBox="0 0 1280 384"><defs><style>.cls-1{fill:none;}.cls-2{fill:#2196f3;}.cls-3{opacity:0.8;}.cls-4{fill:#0d47a1;}.cls-5{opacity:0.6;}.cls-6{clip-path:url(#clip-path);}.cls-7{fill:#64b5f6;}</style><clipPath id="clip-path"><rect class="cls-1" width="1280" height="384"/></clipPath></defs><title>header-</title><rect class="cls-2" width="1280" height="384"/><g class="cls-3"><path class="cls-4" d="M60.76,60.8H67.2a1.33,1.33,0,0,1,1.47,1.47v38.11a1.33,1.33,0,0,1-1.47,1.47H60.76a1.33,1.33,0,0,1-1.47-1.47V62.27A1.33,1.33,0,0,1,60.76,60.8Z"/><path class="cls-4" d="M101.2,83.25v17.12a1.33,1.33,0,0,1-1.47,1.47H93.88a1.33,1.33,0,0,1-1.47-1.47V84c0-2.93-1.7-4.22-3.93-4.22-2.64,0-4.28,1.47-4.28,4.92v15.65a1.33,1.33,0,0,1-1.47,1.47H76.88a1.33,1.33,0,0,1-1.47-1.47V74a1.33,1.33,0,0,1,1.47-1.47h5.86A1.33,1.33,0,0,1,84.2,74V75.2c1.38-2,3.87-3.5,7.62-3.5C97.28,71.71,101.2,75.93,101.2,83.25Z"/><path class="cls-4" d="M122.72,74V79.5A1.33,1.33,0,0,1,121.25,81H118v19.4a1.33,1.33,0,0,1-1.47,1.47H110.7a1.33,1.33,0,0,1-1.47-1.47V81H106a1.33,1.33,0,0,1-1.47-1.47V74A1.33,1.33,0,0,1,106,72.53h3.22V64.61a1.33,1.33,0,0,1,1.47-1.47h5.86A1.33,1.33,0,0,1,118,64.61v7.91h3.22A1.33,1.33,0,0,1,122.72,74Z"/><path class="cls-4" d="M141.71,72.06c1-.18,1.52.47,1.52,1.41v6.92c0,.94-.41,1.41-1.17,1.41-3.28-.12-6.45,1.52-6.45,6.21v12.37a1.33,1.33,0,0,1-1.47,1.47h-5.86a1.33,1.33,0,0,1-1.47-1.47V74a1.33,1.33,0,0,1,1.47-1.47h5.86A1.33,1.33,0,0,1,135.61,74v3.17a7.13,7.13,0,0,1,6.1-5.1Z"/><path class="cls-4" d="M145,87.18a15.54,15.54,0,1,1,15.54,15.48A15.36,15.36,0,0,1,145,87.18Zm22.28,0a6.74,6.74,0,1,0-6.74,6.92A6.57,6.57,0,0,0,167.27,87.18Z"/><path class="cls-4" d="M211.11,62.27v38.11a1.33,1.33,0,0,1-1.47,1.47h-5.86a1.33,1.33,0,0,1-1.47-1.47V99.1c-2,2.23-4.81,3.56-8.73,3.56-7.68,0-14-6.74-14-15.48s6.33-15.48,14-15.48c3.92,0,6.77,1.32,8.73,3.56v-13a1.33,1.33,0,0,1,1.47-1.47h5.86A1.33,1.33,0,0,1,211.11,62.27Zm-8.79,24.92c0-4.4-2.93-7.15-7-7.15s-7,2.76-7,7.15,2.93,7.15,7,7.15S202.32,91.58,202.32,87.18Z"/><path class="cls-4" d="M242.59,74v26.38a1.33,1.33,0,0,1-1.47,1.47h-5.86a1.33,1.33,0,0,1-1.47-1.47V99.16c-1.38,2-3.87,3.5-7.62,3.5-5.45,0-9.38-4.22-9.38-11.55V74a1.33,1.33,0,0,1,1.47-1.47h5.86A1.33,1.33,0,0,1,225.59,74V90.35c0,2.93,1.7,4.22,3.93,4.22,2.64,0,4.28-1.47,4.28-4.92V74a1.33,1.33,0,0,1,1.47-1.47h5.86A1.33,1.33,0,0,1,242.59,74Z"/><path class="cls-4" d="M277.53,92.34a14.76,14.76,0,0,1-14.42,10.32,15.48,15.48,0,1,1,0-31A14.75,14.75,0,0,1,277.53,82c.35,1-.23,1.64-1.23,1.64h-6.45a2.06,2.06,0,0,1-1.76-1,6,6,0,0,0-5-2.29,6.8,6.8,0,0,0,0,13.6,6.1,6.1,0,0,0,5-2.23,1.93,1.93,0,0,1,1.76-1.06h6.45C277.29,90.7,277.88,91.34,277.53,92.34Z"/><path class="cls-4" d="M282,67.54V62.27a1.33,1.33,0,0,1,1.47-1.47h5.86a1.33,1.33,0,0,1,1.47,1.47v5.28A1.33,1.33,0,0,1,289.37,69H283.5A1.33,1.33,0,0,1,282,67.54Zm0,32.83V74a1.33,1.33,0,0,1,1.47-1.47h5.86A1.33,1.33,0,0,1,290.83,74v26.38a1.33,1.33,0,0,1-1.47,1.47H283.5A1.33,1.33,0,0,1,282,100.37Z"/><path class="cls-4" d="M323.07,83.25v17.12a1.33,1.33,0,0,1-1.47,1.47h-5.86a1.33,1.33,0,0,1-1.47-1.47V84c0-2.93-1.7-4.22-3.93-4.22-2.64,0-4.28,1.47-4.28,4.92v15.65a1.33,1.33,0,0,1-1.47,1.47h-5.86a1.33,1.33,0,0,1-1.47-1.47V74a1.33,1.33,0,0,1,1.47-1.47h5.86A1.33,1.33,0,0,1,306.07,74V75.2c1.38-2,3.87-3.5,7.62-3.5C319.15,71.71,323.07,75.93,323.07,83.25Z"/><path class="cls-4" d="M357.37,72.52A1.33,1.33,0,0,1,358.83,74v26.38c0,9.85-7.91,14-15.07,14S329.87,111,329,103.95a1.32,1.32,0,0,1,1.47-1.52h5.92c.88,0,1.29.47,1.58,1.29.65,1.76,2.58,2.93,5.8,2.93,3.93,0,6.51-2.11,6.51-6.27V97.71c-2,2.34-4.89,3.78-9,3.78-7.68,0-14-6.74-14-14.89s6.33-14.89,14-14.89c4.08,0,7,1.43,9,3.78V74a1.33,1.33,0,0,1,1.47-1.47h5.63Zm-7.09,14.07c0-4-2.93-6.8-7.09-6.8s-7.09,2.76-7.09,6.8,2.93,6.8,7.09,6.8S350.27,90.64,350.27,86.59Z"/><path class="cls-4" d="M410.71,62.27v38.11a1.33,1.33,0,0,1-1.47,1.47h-6.45a1.33,1.33,0,0,1-1.47-1.47V85.25H389.6v15.13a1.33,1.33,0,0,1-1.47,1.47h-6.45a1.33,1.33,0,0,1-1.47-1.47V62.27a1.33,1.33,0,0,1,1.47-1.47h6.45a1.33,1.33,0,0,1,1.47,1.47v14h11.72v-14a1.33,1.33,0,0,1,1.47-1.47h6.45A1.33,1.33,0,0,1,410.71,62.27Z"/><path class="cls-4" d="M446.47,87.18c0,.76-.06,1.47-.12,2.17a1.42,1.42,0,0,1-1.58,1.35H425.19c1.06,3.48,3.8,4.87,6.86,4.87a7,7,0,0,0,4.34-1.47,2.68,2.68,0,0,1,1.82-.76l5.63-.06c1.06,0,1.64.7,1.17,1.64-2.29,5.1-7.09,7.74-13.07,7.74-9.73,0-15.95-6.74-15.95-15.48s6.45-15.48,15.71-15.48C440.25,71.71,446.47,78.33,446.47,87.18ZM437.71,84a5.87,5.87,0,0,0-6.08-4.51c-3.3,0-5.58,1.59-6.48,4.51Z"/><path class="cls-4" d="M475.66,83.37v17a1.33,1.33,0,0,1-1.47,1.47h-5.63a1.33,1.33,0,0,1-1.47-1.47v-.84c-1.57,1.84-3.88,3.12-7.56,3.12-5.16,0-9.67-3-9.67-9.15s4.51-9.15,9.67-9.15a11.92,11.92,0,0,1,7.56,2.24V84c0-2.87-1.17-4.16-3.63-4.16-1.82,0-2.93.7-3.4,1.7-.35.82-.65,1.29-1.52,1.29h-5.75a1.32,1.32,0,0,1-1.47-1.52c.76-6.33,6.16-9.56,12.14-9.56C469.91,71.71,475.66,75.46,475.66,83.37ZM467.1,93.51c0-1.82-1.58-2.93-4.46-2.93-2.7,0-4,1.23-4,2.93s1.29,2.93,4,2.93C465.52,96.44,467.1,95.21,467.1,93.51Z"/><path class="cls-4" d="M511.41,62.27v38.11a1.33,1.33,0,0,1-1.47,1.47h-5.86a1.33,1.33,0,0,1-1.47-1.47V99.1c-2,2.23-4.81,3.56-8.73,3.56-7.68,0-14-6.74-14-15.48s6.33-15.48,14-15.48c3.92,0,6.77,1.32,8.73,3.56v-13a1.33,1.33,0,0,1,1.47-1.47h5.86A1.33,1.33,0,0,1,511.41,62.27Zm-8.79,24.92c0-4.4-2.93-7.15-7-7.15s-7,2.76-7,7.15,2.93,7.15,7,7.15S502.62,91.58,502.62,87.18Z"/><path class="cls-4" d="M546.88,87.18c0,.76-.06,1.47-.12,2.17a1.42,1.42,0,0,1-1.58,1.35H525.6c1.07,3.48,3.8,4.87,6.86,4.87a7,7,0,0,0,4.34-1.47,2.68,2.68,0,0,1,1.82-.76l5.63-.06c1.05,0,1.64.7,1.17,1.64-2.29,5.1-7.09,7.74-13.07,7.74-9.73,0-15.95-6.74-15.95-15.48s6.45-15.48,15.71-15.48C540.66,71.71,546.88,78.33,546.88,87.18ZM538.12,84A5.87,5.87,0,0,0,532,79.5c-3.3,0-5.58,1.59-6.48,4.51Z"/><path class="cls-4" d="M566.63,72.06c1-.18,1.52.47,1.52,1.41v6.92c0,.94-.41,1.41-1.17,1.41-3.28-.12-6.45,1.52-6.45,6.21v12.37a1.33,1.33,0,0,1-1.46,1.47h-5.86a1.33,1.33,0,0,1-1.46-1.47V74a1.33,1.33,0,0,1,1.46-1.47h5.86A1.33,1.33,0,0,1,560.53,74v3.17a7.13,7.13,0,0,1,6.1-5.1Z"/><path class="cls-4" d="M594.89,93c0,6.74-5.75,9.61-12.19,9.61-6,0-11.37-2.7-12.08-8.91A1.26,1.26,0,0,1,572,92.22h5.75c.88,0,1.17.47,1.58,1.23.47,1,1.58,1.58,3.34,1.58,2.46,0,3.4-.82,3.4-2,0-4.22-15.3-.35-15.3-11.73,0-6.62,5.75-9.61,11.9-9.61,5.45,0,10.79,2.7,11.49,8.91a1.26,1.26,0,0,1-1.41,1.52H587c-.88,0-1.17-.47-1.58-1.29a2.82,2.82,0,0,0-2.75-1.52c-2.17,0-3.11.82-3.11,2C579.58,85.66,594.89,81.61,594.89,93Z"/></g><g class="cls-3"><path class="cls-4" d="M57,311.69a14.45,14.45,0,0,1,14.82-14.82,14,14,0,0,1,13.72,10,.84.84,0,0,1-.9,1.14H79.84a1.17,1.17,0,0,1-1.14-.81,7.32,7.32,0,0,0-6.88-4c-5,0-8.31,3.38-8.31,8.47s3.26,8.47,8.31,8.47a7.32,7.32,0,0,0,6.88-4,1.17,1.17,0,0,1,1.14-.81h4.81c.69,0,1.06.41.9,1.06a14,14,0,0,1-13.72,10.1A14.45,14.45,0,0,1,57,311.69Z"/><path class="cls-4" d="M88.43,324.92V297.64a.92.92,0,0,1,1-1h4.07a.92.92,0,0,1,1,1v27.29a.92.92,0,0,1-1,1H89.45A.92.92,0,0,1,88.43,324.92Z"/><path class="cls-4" d="M99,302.11v-3.67a.92.92,0,0,1,1-1h4.07a.92.92,0,0,1,1,1v3.67a.92.92,0,0,1-1,1H100A.92.92,0,0,1,99,302.11Zm0,22.81V306.59a.92.92,0,0,1,1-1h4.07a.92.92,0,0,1,1,1v18.33a.92.92,0,0,1-1,1H100A.92.92,0,0,1,99,324.92Z"/><path class="cls-4" d="M129.4,319.34a10.25,10.25,0,0,1-10,7.17,10.75,10.75,0,1,1,0-21.5,10.25,10.25,0,0,1,10,7.17c.24.69-.16,1.14-.86,1.14h-4.48a1.43,1.43,0,0,1-1.22-.69,4.15,4.15,0,0,0-3.46-1.59,4.72,4.72,0,0,0,0,9.45,4.24,4.24,0,0,0,3.46-1.55,1.34,1.34,0,0,1,1.22-.73h4.48C129.24,318.2,129.64,318.65,129.4,319.34Z"/><path class="cls-4" d="M150.17,325.94h-4.64a1.35,1.35,0,0,1-1.22-.65L138.64,317v7.91a.92.92,0,0,1-1,1h-4.07a.92.92,0,0,1-1-1V298.45a.92.92,0,0,1,1-1h4.07a.92.92,0,0,1,1,1v16l5.25-8.2a1.35,1.35,0,0,1,1.22-.65h4.68c.81,0,1.1.53.65,1.22l-6,9,6.31,9C151.27,325.41,151,325.94,150.17,325.94Z"/><path class="cls-4" d="M175.09,306.59v3.83a.92.92,0,0,1-1,1h-2.24v13.48a.92.92,0,0,1-1,1h-4.07a.92.92,0,0,1-1-1V311.44h-2.24a.92.92,0,0,1-1-1v-3.83a.92.92,0,0,1,1-1h2.24v-5.5a.92.92,0,0,1,1-1h4.07a.92.92,0,0,1,1,1v5.5h2.24A.92.92,0,0,1,175.09,306.59Z"/><path class="cls-4" d="M176.51,315.76a10.79,10.79,0,1,1,10.79,10.75A10.67,10.67,0,0,1,176.51,315.76Zm15.48,0a4.69,4.69,0,1,0-4.68,4.81A4.57,4.57,0,0,0,192,315.76Z"/><path class="cls-4" d="M211.73,324.92V297.64a.92.92,0,0,1,1-1h4.07a.92.92,0,0,1,1,1v27.29a.92.92,0,0,1-1,1h-4.07A.92.92,0,0,1,211.73,324.92Z"/><path class="cls-4" d="M242.48,315.76c0,.53,0,1-.08,1.51a1,1,0,0,1-1.1.94H227.7a4.62,4.62,0,0,0,4.76,3.38,4.88,4.88,0,0,0,3-1,1.86,1.86,0,0,1,1.26-.53l3.91,0c.73,0,1.14.49.81,1.14-1.59,3.54-4.93,5.38-9.08,5.38-6.76,0-11.08-4.68-11.08-10.75A10.51,10.51,0,0,1,232.22,305C238.16,305,242.48,309.61,242.48,315.76Zm-6.08-2.2a4.08,4.08,0,0,0-4.22-3.14,4.33,4.33,0,0,0-4.5,3.14Z"/><path class="cls-4" d="M262.76,313.11v11.81a.92.92,0,0,1-1,1h-3.91a.92.92,0,0,1-1-1v-.58a6.44,6.44,0,0,1-5.25,2.17c-3.58,0-6.72-2.12-6.72-6.35s3.14-6.35,6.72-6.35a8.28,8.28,0,0,1,5.25,1.55v-1.84c0-2-.81-2.89-2.53-2.89a2.39,2.39,0,0,0-2.36,1.18c-.24.57-.45.9-1.06.9h-4a.92.92,0,0,1-1-1.06c.53-4.4,4.28-6.64,8.43-6.64C258.77,305,262.76,307.61,262.76,313.11Zm-5.95,7c0-1.26-1.1-2-3.1-2s-2.77.86-2.77,2,.9,2,2.77,2S256.81,321.34,256.81,320.16Z"/><path class="cls-4" d="M277.05,305.25c.69-.12,1.06.33,1.06,1V311c0,.65-.29,1-.81,1-2.28-.08-4.48,1.06-4.48,4.32v8.59a.92.92,0,0,1-1,1h-4.07a.92.92,0,0,1-1-1V306.59a.92.92,0,0,1,1-1h4.07a.92.92,0,0,1,1,1v2.2a5,5,0,0,1,4.24-3.54Z"/><path class="cls-4" d="M298.68,313v11.89a.92.92,0,0,1-1,1h-4.07a.92.92,0,0,1-1-1V313.56c0-2-1.18-2.93-2.73-2.93-1.83,0-3,1-3,3.42v10.87a.92.92,0,0,1-1,1h-4.07a.92.92,0,0,1-1-1V306.59a.92.92,0,0,1,1-1h4.07a.92.92,0,0,1,1,1v.84a6,6,0,0,1,5.29-2.43C295.95,305,298.68,307.94,298.68,313Z"/><path class="cls-4" d="M333.78,305c4,0,6.31,2.52,6.31,7.21v12.71a.92.92,0,0,1-1,1H335a.92.92,0,0,1-1-1V312.74a1.89,1.89,0,0,0-2.12-2.12c-1.22,0-2.36.61-2.36,2.61v11.69a.92.92,0,0,1-1,1h-4.07a.92.92,0,0,1-1-1V312.74a1.89,1.89,0,0,0-2.12-2.12c-1.22,0-2.36.61-2.36,2.61v11.69a.92.92,0,0,1-1,1h-4.07a.92.92,0,0,1-1-1V306.6a.92.92,0,0,1,1-1h4.07a.92.92,0,0,1,1,1v.83A5.47,5.47,0,0,1,323.6,305a5.32,5.32,0,0,1,4.72,2.42,7.12,7.12,0,0,1,5.46-2.42Z"/><path class="cls-4" d="M343,315.76a10.79,10.79,0,1,1,10.79,10.75A10.67,10.67,0,0,1,343,315.76Zm15.48,0a4.69,4.69,0,1,0-4.68,4.81A4.57,4.57,0,0,0,358.49,315.76Z"/><path class="cls-4" d="M378.41,305.25c.69-.12,1.06.33,1.06,1V311c0,.65-.29,1-.81,1-2.28-.08-4.48,1.06-4.48,4.32v8.59a.92.92,0,0,1-1,1h-4.07a.92.92,0,0,1-1-1V306.59a.92.92,0,0,1,1-1h4.07a.92.92,0,0,1,1,1v2.2a5,5,0,0,1,4.24-3.54Z"/><path class="cls-4" d="M401.86,315.76c0,.53,0,1-.08,1.51a1,1,0,0,1-1.1.94h-13.6a4.62,4.62,0,0,0,4.76,3.38,4.88,4.88,0,0,0,3-1,1.86,1.86,0,0,1,1.26-.53l3.91,0c.73,0,1.14.49.81,1.14-1.59,3.54-4.93,5.38-9.08,5.38-6.76,0-11.08-4.68-11.08-10.75A10.51,10.51,0,0,1,391.6,305C397.55,305,401.86,309.61,401.86,315.76Zm-6.08-2.2a4.08,4.08,0,0,0-4.22-3.14,4.33,4.33,0,0,0-4.5,3.14Z"/><path class="cls-4" d="M404.63,324.92v-4.48a.92.92,0,0,1,1-1h4.48a.92.92,0,0,1,1,1v4.48a.92.92,0,0,1-1,1h-4.48A.92.92,0,0,1,404.63,324.92Z"/></g><g class="cls-5"><path class="cls-4" d="M65.73,126.73v3.72H71.5a.58.58,0,0,1,.64.64v2.67a.58.58,0,0,1-.64.64H65.73v5.69a.58.58,0,0,1-.64.64H62.27a.58.58,0,0,1-.64-.64V123.42a.58.58,0,0,1,.64-.64h9.36a.58.58,0,0,1,.64.64v2.67a.58.58,0,0,1-.64.64Z"/><path class="cls-4" d="M73.81,134.31a6.79,6.79,0,1,1,6.79,6.77A6.72,6.72,0,0,1,73.81,134.31Zm9.74,0a2.95,2.95,0,1,0-2.95,3A2.87,2.87,0,0,0,83.55,134.31Z"/><path class="cls-4" d="M96.08,127.7c.44-.08.67.21.67.62v3c0,.41-.18.62-.51.62a2.5,2.5,0,0,0-2.82,2.72v5.41a.58.58,0,0,1-.64.64H90.21a.58.58,0,0,1-.64-.64V128.55a.58.58,0,0,1,.64-.64h2.56a.58.58,0,0,1,.64.64v1.39a3.12,3.12,0,0,1,2.67-2.23Z"/><path class="cls-4" d="M109.06,126.73v3.72h5.77a.58.58,0,0,1,.64.64v2.67a.58.58,0,0,1-.64.64h-5.77v5.69a.58.58,0,0,1-.64.64H105.6a.58.58,0,0,1-.64-.64V123.42a.58.58,0,0,1,.64-.64H115a.58.58,0,0,1,.64.64v2.67a.58.58,0,0,1-.64.64Z"/><path class="cls-4" d="M128.28,132.65v7.43a.58.58,0,0,1-.64.64h-2.46a.58.58,0,0,1-.64-.64v-.37a4.05,4.05,0,0,1-3.31,1.37c-2.26,0-4.23-1.33-4.23-4s2-4,4.23-4a5.21,5.21,0,0,1,3.31,1V132.9c0-1.26-.51-1.82-1.59-1.82a1.51,1.51,0,0,0-1.49.74c-.15.36-.28.56-.67.56h-2.51a.58.58,0,0,1-.64-.67c.33-2.77,2.69-4.18,5.31-4.18C125.77,127.55,128.28,129.19,128.28,132.65Zm-3.74,4.43c0-.79-.69-1.28-1.95-1.28s-1.74.54-1.74,1.28.56,1.28,1.74,1.28S124.54,137.83,124.54,137.08Z"/><path class="cls-4" d="M140.92,136.88c0,2.95-2.51,4.2-5.33,4.2-2.62,0-5-1.18-5.28-3.9a.55.55,0,0,1,.62-.67h2.51c.38,0,.51.21.69.54a1.47,1.47,0,0,0,1.46.69c1.08,0,1.49-.36,1.49-.87,0-1.85-6.69-.15-6.69-5.13,0-2.9,2.51-4.2,5.2-4.2,2.38,0,4.72,1.18,5,3.9a.55.55,0,0,1-.62.67h-2.51c-.38,0-.51-.21-.69-.56a1.23,1.23,0,0,0-1.2-.67c-.95,0-1.36.36-1.36.87C134.23,133.65,140.92,131.88,140.92,136.88Z"/><path class="cls-4" d="M149.9,128.55V131a.58.58,0,0,1-.64.64h-1.41v8.48a.58.58,0,0,1-.64.64h-2.56a.58.58,0,0,1-.64-.64V131.6h-1.41A.58.58,0,0,1,142,131v-2.41a.58.58,0,0,1,.64-.64H144v-3.46a.58.58,0,0,1,.64-.64h2.56a.58.58,0,0,1,.64.64v3.46h1.41A.58.58,0,0,1,149.9,128.55Z"/><path class="cls-4" d="M165.15,123.42v16.66a.58.58,0,0,1-.64.64h-2.82a.58.58,0,0,1-.64-.64v-6.61h-5.13v6.61a.58.58,0,0,1-.64.64h-2.82a.58.58,0,0,1-.64-.64V123.42a.58.58,0,0,1,.64-.64h2.82a.58.58,0,0,1,.64.64v6.1H161v-6.1a.58.58,0,0,1,.64-.64h2.82A.58.58,0,0,1,165.15,123.42Z"/><path class="cls-4" d="M179,128.55v11.54a.58.58,0,0,1-.64.64h-2.56a.58.58,0,0,1-.64-.64v-.53a3.8,3.8,0,0,1-3.33,1.53c-2.38,0-4.1-1.85-4.1-5v-7.49a.58.58,0,0,1,.64-.64H171a.58.58,0,0,1,.64.64v7.15a1.63,1.63,0,0,0,1.72,1.85c1.15,0,1.87-.64,1.87-2.15v-6.84a.58.58,0,0,1,.64-.64h2.56A.58.58,0,0,1,179,128.55Z"/><path class="cls-4" d="M195.66,134.31c0,3.82-2.77,6.77-6.13,6.77a4.82,4.82,0,0,1-3.82-1.56v.56a.58.58,0,0,1-.64.64h-2.56a.58.58,0,0,1-.64-.64V123.42a.58.58,0,0,1,.64-.64h2.56a.58.58,0,0,1,.64.64v5.68a4.82,4.82,0,0,1,3.82-1.56C192.89,127.55,195.66,130.5,195.66,134.31Zm-3.85,0a3.05,3.05,0,1,0-3.05,3.13A2.93,2.93,0,0,0,191.81,134.31Z"/></g><g class="cls-6"><rect class="cls-7" x="579.19" y="145.62" width="746.87" height="138.24" transform="translate(127.17 736.5) rotate(-45)"/></g></svg>